<svg xmlns="http://www.w3.org/2000/svg" fill="none" viewBox="0 0 512 485"><path stroke="#18AC0B" stroke-width="3" d="M255.735 27.166H510.5v455.76H255.735V27.166Z"/><path fill="#353240" d="M42.5 167v-59.5h175V167H165v264H95V167H42.5Z"/><path fill="#18AC0B" d="M414.59 375.06v-49h65.17v41.16c0 43.12-20.253 64.68-60.76 64.68h-61.74c-40.507 0-60.76-21.56-60.76-64.68V169.75c0-43.12 20.253-64.68 60.76-64.68H419c40.507 0 60.76 21.56 60.76 64.68v29.89h-65.17v-38.22c0-2.613-.98-4.9-2.94-6.86-1.633-1.96-3.757-2.94-6.37-2.94h-30.87c-2.613 0-4.9.98-6.86 2.94-1.633 1.96-2.45 4.247-2.45 6.86v213.64c0 2.613.817 4.9 2.45 6.86 1.96 1.96 4.247 2.94 6.86 2.94h30.87c2.613 0 4.737-.98 6.37-2.94 1.96-1.96 2.94-4.247 2.94-6.86ZM0 440.261h255.24v44.223H0z"/></svg>